<svg id="visual" viewBox="0 0 900 100" width="900" height="100" xmlns="http://www.w3.org/2000/svg" xmlns:xlink="http://www.w3.org/1999/xlink" version="1.1"><rect x="0" y="0" width="900" height="100" fill="#0a0322"></rect><defs><linearGradient id="grad1_0" x1="88.9%" y1="100%" x2="100%" y2="0%"><stop offset="-130%" stop-color="#0a0322" stop-opacity="1"></stop><stop offset="230%" stop-color="#0a0322" stop-opacity="1"></stop></linearGradient></defs><defs><linearGradient id="grad2_0" x1="0%" y1="100%" x2="11.1%" y2="0%"><stop offset="-130%" stop-color="#0a0322" stop-opacity="1"></stop><stop offset="230%" stop-color="#0a0322" stop-opacity="1"></stop></linearGradient></defs><g transform="translate(900, 100)"><path d="M-95 0C-80 -8.1 -64.9 -16.2 -58.2 -24.1C-51.5 -32 -53.1 -39.7 -51.6 -51.6C-50.1 -63.6 -45.5 -79.8 -36.4 -87.8C-27.2 -95.7 -13.6 -95.4 0 -95L0 0Z" fill="#F1ac38"></path></g><g transform="translate(0, 0)"><path d="M95 0C82.8 8.3 70.6 16.7 66.5 27.6C62.4 38.4 66.5 51.8 62.9 62.9C59.3 74 48.1 82.8 36.4 87.8C24.6 92.7 12.3 93.9 0 95L0 0Z" fill="#F1ac38"></path></g></svg>